<svg width="800" height="960" viewBox="0 0 800 960" fill="none" xmlns="http://www.w3.org/2000/svg">
<rect width="800" height="960" rx="48" fill="#1A1712"/>
<rect x="36" y="36" width="728" height="888" rx="32" fill="url(#paint0_linear_201_2)"/>
<rect x="100" y="120" width="600" height="120" rx="24" fill="#F4E7C4" fill-opacity="0.16"/>
<rect x="130" y="160" width="250" height="18" rx="9" fill="#F8EDCE"/>
<rect x="130" y="194" width="180" height="14" rx="7" fill="#E7C15D"/>
<rect x="100" y="294" width="600" height="440" rx="28" fill="#2A241D"/>
<rect x="160" y="350" width="210" height="260" rx="22" fill="#C69C3D"/>
<rect x="430" y="350" width="210" height="260" rx="22" fill="#F3E9D0"/>
<rect x="194" y="635" width="138" height="22" rx="11" fill="#FAF5E7" fill-opacity="0.7"/>
<rect x="468" y="635" width="138" height="22" rx="11" fill="#C69C3D"/>
<rect x="180" y="766" width="440" height="72" rx="20" fill="#111111"/>
<rect x="228" y="792" width="152" height="20" rx="10" fill="#F3E9D0"/>
<rect x="412" y="792" width="160" height="20" rx="10" fill="#C69C3D"/>
<defs>
<linearGradient id="paint0_linear_201_2" x1="400" y1="36" x2="400" y2="924" gradientUnits="userSpaceOnUse">
<stop stop-color="#4D3D2A"/>
<stop offset="1" stop-color="#211B14"/>
</linearGradient>
</defs>
</svg>
