<svg width="640" height="480" viewBox="0 0 640 480" fill="none" xmlns="http://www.w3.org/2000/svg">
<rect width="640" height="480" rx="32" fill="#F4EDE1"/>
<circle cx="448" cy="116" r="66" fill="#D4AF37" fill-opacity="0.35"/>
<rect x="78" y="74" width="188" height="310" rx="94" fill="#111111"/>
<circle cx="170" cy="166" r="60" fill="#F0C8A5"/>
<path d="M112 156C112 118.445 142.445 88 180 88H186C223.555 88 254 118.445 254 156V182H112V156Z" fill="#1F1A18"/>
<rect x="132" y="230" width="80" height="94" rx="40" fill="#F0C8A5"/>
<rect x="254" y="122" width="96" height="32" rx="16" transform="rotate(18 254 122)" fill="#D4AF37"/>
<rect x="274" y="146" width="198" height="26" rx="13" transform="rotate(18 274 146)" fill="#111111"/>
<rect x="312" y="210" width="192" height="146" rx="24" fill="#C59A34"/>
<rect x="334" y="236" width="148" height="18" rx="9" fill="#FFF8E8"/>
<rect x="334" y="274" width="112" height="14" rx="7" fill="#FFF8E8" fill-opacity="0.85"/>
<rect x="334" y="310" width="96" height="14" rx="7" fill="#FFF8E8" fill-opacity="0.7"/>
</svg>
